<svg
   class="logo"
   xmlns:dc="http://purl.org/dc/elements/1.1/"
   xmlns:cc="http://creativecommons.org/ns#"
   xmlns:rdf="http://www.w3.org/1999/02/22-rdf-syntax-ns#"
   xmlns:svg="http://www.w3.org/2000/svg"
   xmlns="http://www.w3.org/2000/svg"
   xmlns:sodipodi="http://sodipodi.sourceforge.net/DTD/sodipodi-0.dtd"
   xmlns:inkscape="http://www.inkscape.org/namespaces/inkscape"
   width="42.164551mm"
   height="6.4216623mm"
   viewBox="0 0 60 5"
   version="1.1"
   id="svg8"
   inkscape:version="1.0.1 (3bc2e813f5, 2020-09-07)"
   sodipodi:docname="sid-logo3.svg">
  <defs
     id="defs2">
    <rect
       x="37.117048"
       y="96.312224"
       width="71.391882"
       height="34.897629"
       id="rect860" />
    <rect
       x="37.041668"
       y="103.56548"
       width="142.875"
       height="35.529762"
       id="rect835" />
  </defs>
  <sodipodi:namedview
     id="base"
     pagecolor="#ffffff"
     bordercolor="#666666"
     borderopacity="1.0"
     inkscape:pageopacity="0.0"
     inkscape:pageshadow="2"
     inkscape:zoom="1.16"
     inkscape:cx="243.33578"
     inkscape:cy="60.640468"
     inkscape:document-units="mm"
     inkscape:current-layer="layer1"
     inkscape:document-rotation="0"
     showgrid="false"
     fit-margin-top="0"
     fit-margin-left="0"
     fit-margin-right="0"
     fit-margin-bottom="0"
     inkscape:window-width="2560"
     inkscape:window-height="1377"
     inkscape:window-x="-8"
     inkscape:window-y="-8"
     inkscape:window-maximized="1" />
  <metadata
     id="metadata5">
    <rdf:RDF>
      <cc:Work
         rdf:about="">
        <dc:format>image/svg+xml</dc:format>
        <dc:type
           rdf:resource="http://purl.org/dc/dcmitype/StillImage" />
        <dc:title></dc:title>
      </cc:Work>
    </rdf:RDF>
  </metadata>
  <g
     inkscape:label="Layer 1"
     inkscape:groupmode="layer"
     id="layer1"
     transform="translate(-41.450741,-104.75152)">
    <g
       aria-label="「SSID: sethso」"
       id="text833"
       style="font-size:7.05556px;line-height:1.25;font-family:'Cambria Math';-inkscape-font-specification:'Cambria Math, Normal';white-space:pre;shape-inside:url(#rect835);fill:#000000;fill-opacity:1">
      <path
         d="m 42.001956,109.6849 h -0.551215 v -4.93338 h 2.067058 v 0.52365 h -1.515843 z"
         style="font-size:7.05556px;line-height:1.25;font-family:'Cambria Math';-inkscape-font-specification:'Cambria Math, Normal';white-space:pre;shape-inside:url(#rect835);fill:#000000;fill-opacity:1"
         id="path864" />
      <path
         d="m 44.826936,109.4403 q 0.0689,0.30317 0.186036,0.47887 0.117133,0.1757 0.303168,0.26182 0.186036,0.0827 0.478869,0.0827 0.403076,0 0.616672,-0.21015 0.217042,-0.21016 0.217042,-0.61323 0,-0.25838 -0.08957,-0.43408 -0.08957,-0.1757 -0.292833,-0.33073 -0.203261,-0.15503 -0.620118,-0.36174 -0.403076,-0.19981 -0.637343,-0.3893 -0.234267,-0.19292 -0.3514,-0.41685 -0.113688,-0.22393 -0.113688,-0.48921 0,-0.38585 0.179145,-0.66834 0.18259,-0.28595 0.530545,-0.44098 0.3514,-0.15503 0.802708,-0.15503 0.261827,0 0.509874,0.0276 0.251492,0.0276 0.627008,0.12403 v 0.93017 h -0.341065 q -0.07924,-0.30316 -0.199815,-0.47197 -0.120579,-0.16881 -0.282498,-0.23427 -0.16192,-0.0689 -0.420302,-0.0689 -0.223932,0 -0.403077,0.0827 -0.1757,0.0827 -0.279053,0.25149 -0.103353,0.16537 -0.103353,0.39619 0,0.2446 0.08613,0.41341 0.08957,0.16881 0.275608,0.3135 0.186035,0.1447 0.551215,0.32384 0.440973,0.22049 0.68213,0.40997 0.244602,0.18948 0.37896,0.43408 0.137804,0.24116 0.137804,0.565 0,0.36173 -0.113688,0.61322 -0.113688,0.24805 -0.316949,0.40653 -0.199816,0.15503 -0.482314,0.22737 -0.279052,0.0689 -0.613227,0.0689 -0.54088,0 -1.247125,-0.18259 v -0.94395 z"
         style="font-size:7.05556px;line-height:1.25;font-family:'Cambria Math';-inkscape-font-specification:'Cambria Math, Normal';white-space:pre;shape-inside:url(#rect835);fill:#000000;fill-opacity:1"
         id="path866" />
      <path
         d="m 48.327156,109.4403 q 0.0689,0.30317 0.186035,0.47887 0.117133,0.1757 0.303169,0.26182 0.186035,0.0827 0.478868,0.0827 0.403077,0 0.616673,-0.21015 0.217041,-0.21016 0.217041,-0.61323 0,-0.25838 -0.08957,-0.43408 -0.08957,-0.1757 -0.292833,-0.33073 -0.203261,-0.15503 -0.620118,-0.36174 -0.403076,-0.19981 -0.637343,-0.3893 -0.234266,-0.19292 -0.3514,-0.41685 -0.113688,-0.22393 -0.113688,-0.48921 0,-0.38585 0.179145,-0.66834 0.18259,-0.28595 0.530545,-0.44098 0.3514,-0.15503 0.802708,-0.15503 0.261828,0 0.509875,0.0276 0.251492,0.0276 0.627007,0.12403 v 0.93017 h -0.341064 q -0.07924,-0.30316 -0.199816,-0.47197 -0.120578,-0.16881 -0.282498,-0.23427 -0.16192,-0.0689 -0.420302,-0.0689 -0.223931,0 -0.403076,0.0827 -0.1757,0.0827 -0.279053,0.25149 -0.103353,0.16537 -0.103353,0.39619 0,0.2446 0.08613,0.41341 0.08957,0.16881 0.275608,0.3135 0.186035,0.1447 0.551216,0.32384 0.440972,0.22049 0.682129,0.40997 0.244602,0.18948 0.378961,0.43408 0.137804,0.24116 0.137804,0.565 0,0.36173 -0.113689,0.61322 -0.113688,0.24805 -0.316949,0.40653 -0.199815,0.15503 -0.482313,0.22737 -0.279053,0.0689 -0.613228,0.0689 -0.54088,0 -1.247125,-0.18259 v -0.94395 z"
         style="font-size:7.05556px;line-height:1.25;font-family:'Cambria Math';-inkscape-font-specification:'Cambria Math, Normal';white-space:pre;shape-inside:url(#rect835);fill:#000000;fill-opacity:1"
         id="path868" />
      <path
         d="m 52.564626,109.65045 q 0,0.23082 0.01378,0.33762 0.01723,0.1068 0.05168,0.16881 0.0379,0.062 0.106798,0.10335 0.07235,0.0413 0.230821,0.0827 v 0.16881 h -1.453831 v -0.16881 q 0.213596,-0.0551 0.285943,-0.12057 0.07235,-0.0689 0.09302,-0.19293 0.02412,-0.12402 0.02412,-0.37896 v -2.98001 q 0,-0.23771 -0.01723,-0.34451 -0.01722,-0.11024 -0.05857,-0.16881 -0.0379,-0.062 -0.103353,-0.0965 -0.06546,-0.0379 -0.223932,-0.0827 v -0.16881 h 1.453831 v 0.16881 q -0.151584,0.0379 -0.220486,0.0758 -0.06546,0.0379 -0.106798,0.0965 -0.0379,0.0551 -0.05857,0.16881 -0.01723,0.11369 -0.01723,0.3514 z"
         style="font-size:7.05556px;line-height:1.25;font-family:'Cambria Math';-inkscape-font-specification:'Cambria Math, Normal';white-space:pre;shape-inside:url(#rect835);fill:#000000;fill-opacity:1"
         id="path870" />
      <path
         d="m 53.797971,110.51172 v -0.16881 q 0.158475,-0.0413 0.227377,-0.0792 0.0689,-0.0379 0.106798,-0.0965 0.0379,-0.0586 0.05512,-0.16881 0.01723,-0.11024 0.01723,-0.34795 v -2.98001 q 0,-0.24116 -0.01723,-0.34796 -0.01722,-0.11024 -0.05857,-0.16881 -0.0379,-0.0586 -0.103353,-0.093 -0.06546,-0.0379 -0.227377,-0.0827 v -0.16881 h 1.508953 q 0.651124,0 1.064535,0.1447 0.416857,0.14125 0.7028,0.4203 0.285943,0.27905 0.427192,0.69591 0.141249,0.41341 0.141249,0.98874 0,0.58223 -0.134358,1.02664 -0.130914,0.44098 -0.385851,0.7407 -0.220487,0.26183 -0.540881,0.43064 -0.265272,0.1378 -0.613227,0.19637 -0.347955,0.0586 -0.923286,0.0586 z m 1.050755,-0.32039 q 0.137804,0.0138 0.406522,0.0138 0.289388,0 0.516764,-0.0482 0.227377,-0.0482 0.413412,-0.15159 0.186035,-0.10335 0.334175,-0.28594 0.148139,-0.18603 0.241156,-0.42375 0.09302,-0.24115 0.134359,-0.53399 0.04479,-0.29283 0.04479,-0.64078 0,-0.69936 -0.20326,-1.14722 -0.199816,-0.45131 -0.568441,-0.65802 -0.365181,-0.2067 -0.875055,-0.2067 -0.234267,0 -0.444418,0.0138 z"
         style="font-size:7.05556px;line-height:1.25;font-family:'Cambria Math';-inkscape-font-specification:'Cambria Math, Normal';white-space:pre;shape-inside:url(#rect835);fill:#000000;fill-opacity:1"
         id="path872" />
      <path
         d="m 59.327354,107.4008 v 0.80615 h -0.68902 v -0.80615 z m 0,2.31166 v 0.79926 h -0.68902 v -0.79926 z"
         style="font-size:7.05556px;line-height:1.25;font-family:'Cambria Math';-inkscape-font-specification:'Cambria Math, Normal';white-space:pre;shape-inside:url(#rect835);fill:#000000;fill-opacity:1"
         id="path874" />
      <path
         d="m 64.109149,107.97269 h -0.33073 q -0.07579,-0.20671 -0.179145,-0.32384 -0.103353,-0.12058 -0.234266,-0.16881 -0.130914,-0.0482 -0.320395,-0.0482 -0.275607,0 -0.440972,0.13091 -0.16192,0.12747 -0.16192,0.3514 0,0.15847 0.06546,0.26183 0.06546,0.10335 0.203261,0.19292 0.137804,0.0896 0.485759,0.23771 0.3514,0.15159 0.54088,0.27906 0.192926,0.12747 0.299724,0.29628 0.110243,0.16881 0.110243,0.40307 0,0.27216 -0.09302,0.4582 -0.09302,0.18604 -0.261827,0.30317 -0.16881,0.11713 -0.403077,0.16881 -0.230821,0.0517 -0.506429,0.0517 -0.289388,0 -0.561551,-0.0448 -0.272163,-0.0413 -0.530545,-0.11024 v -0.72003 h 0.337619 q 0.09302,0.31695 0.275608,0.46164 0.18259,0.14125 0.502985,0.14125 0.124023,0 0.241156,-0.0241 0.120579,-0.0276 0.213596,-0.0861 0.09302,-0.062 0.14814,-0.16537 0.05512,-0.10335 0.05512,-0.25838 0,-0.1757 -0.0689,-0.28594 -0.0689,-0.11024 -0.213596,-0.19982 -0.144694,-0.093 -0.509874,-0.24804 -0.313504,-0.13092 -0.502985,-0.25494 -0.18948,-0.12402 -0.299723,-0.29283 -0.106798,-0.16881 -0.106798,-0.39964 0,-0.28249 0.151584,-0.4892 0.15503,-0.21015 0.444418,-0.32039 0.289388,-0.11025 0.678684,-0.11025 0.227377,0 0.437528,0.0241 0.213596,0.0207 0.53399,0.0861 z"
         style="fill:#0000ff;fill-opacity:1"
         id="path876" />
      <path
         d="m 67.585253,109.92606 q -0.220486,0.23082 -0.406521,0.36173 -0.182591,0.13092 -0.403077,0.20671 -0.220486,0.0723 -0.485759,0.0723 -0.70969,0 -1.071425,-0.42374 -0.361735,-0.42719 -0.361735,-1.25746 0,-0.51332 0.18259,-0.90606 0.186035,-0.39274 0.5271,-0.60634 0.341064,-0.2136 0.785482,-0.2136 0.347955,0 0.592557,0.11025 0.244602,0.11024 0.389296,0.30316 0.148139,0.18949 0.227376,0.48232 0.08268,0.28939 0.09302,0.75792 h -2.170412 v 0.062 q 0,0.40652 0.08957,0.68558 0.09302,0.2756 0.299723,0.43408 0.210151,0.15503 0.544326,0.15503 0.282498,0 0.506429,-0.10335 0.227377,-0.1068 0.451308,-0.34451 z m -0.578776,-1.39871 q -0.02067,-0.37207 -0.09302,-0.60634 -0.07235,-0.23771 -0.217041,-0.36174 -0.144694,-0.12746 -0.378961,-0.12746 -0.354845,0 -0.568441,0.28594 -0.210151,0.2825 -0.248047,0.8096 z"
         style="fill:#0000ff;fill-opacity:1"
         id="path878" />
      <path
         d="m 68.067566,107.39046 q 0.172255,-0.0276 0.279053,-0.0965 0.106798,-0.0689 0.165365,-0.1757 0.06201,-0.11024 0.09646,-0.27216 0.03445,-0.16537 0.07235,-0.47887 h 0.489204 v 0.85094 h 1.112766 v 0.34795 h -1.112766 v 1.53307 q 0,0.33418 0.02756,0.53399 0.02756,0.19637 0.103353,0.31006 0.07579,0.11025 0.172255,0.15848 0.09646,0.0482 0.248047,0.0482 0.137804,0 0.258383,-0.0551 0.120578,-0.0586 0.237711,-0.16537 l 0.15503,0.18604 q -0.244602,0.23771 -0.465088,0.34451 -0.217042,0.10679 -0.451308,0.10679 -0.444418,0 -0.661459,-0.26182 -0.217041,-0.26528 -0.217041,-0.82683 v -1.91203 h -0.509875 z"
         style="fill:#0000ff;fill-opacity:1"
         id="path880" />
      <path
         d="m 71.58501,107.75909 0.01378,0.003 q 0.268718,-0.27217 0.423747,-0.37897 0.158475,-0.11024 0.310059,-0.16536 0.155029,-0.0551 0.330729,-0.0551 0.189481,0 0.33762,0.0448 0.148139,0.0448 0.258382,0.13781 0.113688,0.0896 0.18259,0.22393 0.07235,0.13091 0.106798,0.31695 0.03445,0.18259 0.03445,0.46509 v 1.2988 q 0,0.29972 0.02412,0.40997 0.02756,0.10679 0.09302,0.16881 0.0689,0.0586 0.272162,0.11368 v 0.16881 h -1.357368 v -0.16881 q 0.134359,-0.0413 0.192925,-0.0723 0.05857,-0.031 0.09646,-0.0861 0.04134,-0.0551 0.06201,-0.16881 0.02412,-0.11713 0.02412,-0.3514 v -0.90262 q 0,-0.45819 -0.04823,-0.69935 -0.04479,-0.2446 -0.18259,-0.36518 -0.134359,-0.12058 -0.378961,-0.12058 -0.137804,0 -0.248047,0.0482 -0.110243,0.0482 -0.254937,0.17226 -0.144694,0.12402 -0.220486,0.25493 -0.07235,0.13092 -0.07235,0.27906 v 1.31947 q 0,0.23427 0.01033,0.33417 0.01378,0.0999 0.04823,0.16881 0.03445,0.0655 0.103353,0.11025 0.07235,0.0413 0.220486,0.0792 v 0.16881 h -1.364258 v -0.16881 q 0.151584,-0.0413 0.217041,-0.0792 0.06546,-0.0379 0.09991,-0.0965 0.0379,-0.0586 0.05512,-0.16881 0.01723,-0.11024 0.01723,-0.34795 v -2.88355 q 0,-0.33073 -0.0069,-0.46164 -0.0034,-0.13091 -0.02756,-0.22049 -0.02067,-0.093 -0.06201,-0.14469 -0.0379,-0.0517 -0.106798,-0.0827 -0.06546,-0.031 -0.241157,-0.062 v -0.17914 l 0.830269,-0.0345 h 0.206706 z"
         style="fill:#0000ff;fill-opacity:1"
         id="path882" />
      <path
         d="m 76.862899,107.97269 h -0.33073 q -0.07579,-0.20671 -0.179145,-0.32384 -0.103353,-0.12058 -0.234267,-0.16881 -0.130913,-0.0482 -0.320394,-0.0482 -0.275607,0 -0.440972,0.13091 -0.16192,0.12747 -0.16192,0.3514 0,0.15847 0.06546,0.26183 0.06546,0.10335 0.203261,0.19292 0.137804,0.0896 0.485759,0.23771 0.3514,0.15159 0.54088,0.27906 0.192925,0.12747 0.299723,0.29628 0.110244,0.16881 0.110244,0.40307 0,0.27216 -0.09302,0.4582 -0.09302,0.18604 -0.261827,0.30317 -0.16881,0.11713 -0.403077,0.16881 -0.230821,0.0517 -0.506429,0.0517 -0.289388,0 -0.561551,-0.0448 -0.272163,-0.0413 -0.530545,-0.11024 v -0.72003 h 0.337619 q 0.09302,0.31695 0.275608,0.46164 0.18259,0.14125 0.502984,0.14125 0.124024,0 0.241157,-0.0241 0.120579,-0.0276 0.213596,-0.0861 0.09302,-0.062 0.14814,-0.16537 0.05512,-0.10335 0.05512,-0.25838 0,-0.1757 -0.0689,-0.28594 -0.0689,-0.11024 -0.213596,-0.19982 -0.144694,-0.093 -0.509874,-0.24804 -0.313504,-0.13092 -0.502985,-0.25494 -0.18948,-0.12402 -0.299723,-0.29283 -0.106798,-0.16881 -0.106798,-0.39964 0,-0.28249 0.151584,-0.4892 0.15503,-0.21015 0.444418,-0.32039 0.289388,-0.11025 0.678684,-0.11025 0.227376,0 0.437527,0.0241 0.213596,0.0207 0.533991,0.0861 z"
         style="fill:#0000ff;fill-opacity:1"
         id="path884" />
      <path
         d="m 79.084989,110.56684 q -0.71658,0 -1.095541,-0.4203 -0.375515,-0.42374 -0.375515,-1.25057 0,-0.56844 0.19637,-0.96118 0.199816,-0.39274 0.544326,-0.58222 0.344509,-0.19293 0.785482,-0.19293 0.737251,0 1.116211,0.43064 0.378961,0.42719 0.378961,1.2299 0,0.57189 -0.18948,0.96463 -0.189481,0.39274 -0.537435,0.58911 -0.347955,0.19292 -0.823379,0.19292 z m -0.819933,-1.74321 q 0,0.70969 0.223931,1.09209 0.227377,0.37896 0.647679,0.37896 0.230821,0 0.392741,-0.11024 0.161919,-0.11369 0.261827,-0.30317 0.103353,-0.18948 0.148139,-0.43753 0.04479,-0.25149 0.04479,-0.52365 0,-0.50643 -0.113688,-0.84061 -0.110244,-0.33417 -0.303169,-0.4892 -0.192926,-0.15847 -0.440973,-0.15847 -0.416856,0 -0.640788,0.36173 -0.220486,0.36174 -0.220486,1.03009 z"
         style="fill:#0000ff;fill-opacity:1"
         id="path886" />
      <path
         d="m 83.615291,106.2398 v 4.93338 h -2.067058 v -0.52365 h 1.515843 v -4.40973 z"
         style="fill:#000000;fill-opacity:1"
         id="path888" />
    </g>
    <text
       xml:space="preserve"
       id="text858"
       style="line-height:1.25;font-family:'Cambria Math';font-size:7.05555556px;-inkscape-font-specification:'Cambria Math, Normal';white-space:pre;shape-inside:url(#rect860);" />
  </g>
</svg>
